<svg xmlns="http://www.w3.org/2000/svg" xmlns:xlink="http://www.w3.org/1999/xlink" version="1.1" x="0px" y="0px" viewBox="0 0 302.813 367.13625" xml:space="preserve" fill="#7a0202"><g><path d="M173.042,2.872h69.627v92.237h-20.33V85.9c0.722,1.123,1.948,1.898,3.383,1.971c0.074,0.002,0.146,0.005,0.221,0.005   c2.266,0,4.158-1.78,4.273-4.07c0.281-5.637,0.414-10.578,0.414-14.914c-0.02-11.651-0.893-18.88-2.719-23.876   c-0.928-2.486-2.168-4.52-3.959-5.989c-1.63-1.36-3.668-1.991-5.445-2.067c-0.103-0.008-0.2-0.031-0.305-0.031h-20.691   c-0.104,0-0.202,0.023-0.305,0.031c-1.779,0.076-3.819,0.707-5.445,2.067c-2.689,2.252-4.129,5.557-5.154,10.192   c-1,4.677-1.521,10.942-1.527,19.674c0,4.336,0.133,9.277,0.418,14.915c0.023,0.461,0.136,0.894,0.292,1.304l0.583,0.773   l0.852,1.128c0.717,0.536,1.594,0.864,2.549,0.864c0.072,0,0.145-0.003,0.219-0.005c1.435-0.073,2.661-0.85,3.383-1.974v9.211   h-0.039l0.953,1.263l-2.131,1.608h53.383V0h-75.369v90.594l2.871-2.166V2.872z M193.323,60.219c0-8.026,6.504-14.533,14.531-14.533   c8.026,0,14.53,6.506,14.532,14.533c-0.002,8.024-6.506,14.529-14.532,14.531C199.83,74.748,193.323,68.245,193.323,60.219z    M206.617,85.376h2.48c0,0,0.176,6.025,0.173,9.732h-2.653V85.376z"/><path d="M207.854,72.748c6.924-0.011,12.519-5.609,12.53-12.529c-0.012-6.921-5.607-12.52-12.53-12.533   c-6.92,0.013-12.52,5.612-12.531,12.533C195.334,67.139,200.934,72.737,207.854,72.748z M207.854,53.159   c3.898,0,7.058,3.16,7.06,7.06c-0.002,3.897-3.16,7.058-7.06,7.058s-7.059-3.16-7.059-7.058   C200.795,56.319,203.955,53.159,207.854,53.159z"/><path d="M207.854,65.277c2.792-0.004,5.054-2.266,5.058-5.058c-0.004-2.796-2.264-5.056-5.058-5.06   c-2.796,0.004-5.054,2.264-5.058,5.06C202.8,63.011,205.06,65.273,207.854,65.277z"/><path d="M207.857,33.877c6.654,0,12.049-5.396,12.049-12.049c0-6.655-5.395-12.049-12.049-12.049   c-6.654,0-12.049,5.394-12.049,12.049C195.808,28.482,201.203,33.877,207.857,33.877z M207.855,14.558   c4.016,0,7.271,3.255,7.271,7.271c0,4.015-3.256,7.271-7.271,7.271c-4.016,0-7.271-3.255-7.271-7.271   C200.583,17.813,203.839,14.558,207.855,14.558z"/><circle cx="207.854" cy="21.828" r="3.938"/><polygon points="176.347,149.538 163.624,149.538 163.624,154.789 252.085,154.789 252.085,149.538 239.361,149.538    239.361,99.854 228.859,99.854 228.859,149.538 186.851,149.538 186.851,101.986 176.347,109.914  "/><path d="M83.293,152.438c2.087,0,4.104-0.29,6.022-0.821c5.551-1.539,10.24-5.147,13.179-9.947   c2.092-3.417,3.299-7.433,3.299-11.732c0-12.427-10.072-22.5-22.5-22.5c-12.426,0-22.499,10.073-22.499,22.5   c0,8.536,4.753,15.961,11.757,19.774c3.186,1.735,6.838,2.722,10.721,2.726C83.279,152.438,83.287,152.438,83.293,152.438z"/><path d="M12.249,293.709c1.153,0,2.324-0.164,3.486-0.508l44.999-13.333c3.227-0.957,5.879-3.155,7.417-6.15   c1.537-2.994,1.779-6.431,0.677-9.61l-8.608-24.824l12.326,3.134c2.389,0.998,5.106,1.262,7.806,0.558l-0.002-0.002l18.574-4.851   l-7.121,40.985c-1.16,6.664,3.306,13.008,9.971,14.167c0.709,0.123,1.416,0.183,2.112,0.183   c5.846,0.001,11.018-4.198,12.056-10.155l10.382-59.748c0.715-4.116-0.702-8.285-3.775-11.114   c-3.075-2.829-7.349-3.894-11.39-2.837l-23.059,6.024l9.236-36.331l19.131,6.8c0.881,0.313,1.782,0.462,2.669,0.462   c3.214,0,6.244-1.952,7.469-5.109l12.667-32.666c1.058-2.728,0.512-5.676-1.17-7.825l4.182-3.156l-4.661-6.175l48.264-36.429   l-4.302-5.7l-93.289,70.406l-31.812-8.087c-4.138-1.052-8.343,1.45-9.395,5.586l-16.851,66.284   c-0.497,1.956-0.192,3.922,0.696,5.569c0.107,0.518,0.235,1.034,0.413,1.547v-0.002l10.132,29.219l-32.704,9.691   c-6.488,1.92-10.188,8.738-8.266,15.225C2.085,290.262,6.963,293.709,12.249,293.709z M117.391,160.954l-2.894,7.462l-4.754-1.689   L117.391,160.954z"/><rect x="252.813" y="131.891" width="50" height="3"/><rect x="190.313" y="131.891" width="33" height="3"/><rect x="149.813" y="131.891" width="19.5" height="3"/></g></svg>